<?xml version="1.0" standalone="no"?>
<svg xmlns:xlink="http://www.w3.org/1999/xlink" id="wave" style="transform:rotate(180deg); transition: 0.3s" viewBox="0 0 1440 100" version="1.1" xmlns="http://www.w3.org/2000/svg"><defs><linearGradient id="sw-gradient-0" x1="0" x2="0" y1="1" y2="0"><stop stop-color="rgba(255, 170, 245, 1)" offset="0%"/><stop stop-color="rgba(242, 0, 255, 1)" offset="100%"/></linearGradient></defs><path style="transform:translate(0, 0px); opacity:1" fill="url(#sw-gradient-0)" d="M0,40L26.7,45C53.3,50,107,60,160,56.7C213.3,53,267,37,320,38.3C373.3,40,427,60,480,63.3C533.3,67,587,53,640,40C693.3,27,747,13,800,18.3C853.3,23,907,47,960,60C1013.3,73,1067,77,1120,71.7C1173.3,67,1227,53,1280,53.3C1333.3,53,1387,67,1440,61.7C1493.3,57,1547,33,1600,35C1653.3,37,1707,63,1760,71.7C1813.3,80,1867,70,1920,68.3C1973.3,67,2027,73,2080,63.3C2133.3,53,2187,27,2240,21.7C2293.3,17,2347,33,2400,38.3C2453.3,43,2507,37,2560,36.7C2613.3,37,2667,43,2720,41.7C2773.3,40,2827,30,2880,25C2933.3,20,2987,20,3040,31.7C3093.3,43,3147,67,3200,65C3253.3,63,3307,37,3360,25C3413.3,13,3467,17,3520,26.7C3573.3,37,3627,53,3680,55C3733.3,57,3787,43,3813,36.7L3840,30L3840,100L3813.3,100C3786.7,100,3733,100,3680,100C3626.7,100,3573,100,3520,100C3466.7,100,3413,100,3360,100C3306.7,100,3253,100,3200,100C3146.7,100,3093,100,3040,100C2986.7,100,2933,100,2880,100C2826.7,100,2773,100,2720,100C2666.7,100,2613,100,2560,100C2506.7,100,2453,100,2400,100C2346.7,100,2293,100,2240,100C2186.7,100,2133,100,2080,100C2026.7,100,1973,100,1920,100C1866.7,100,1813,100,1760,100C1706.7,100,1653,100,1600,100C1546.7,100,1493,100,1440,100C1386.7,100,1333,100,1280,100C1226.7,100,1173,100,1120,100C1066.7,100,1013,100,960,100C906.7,100,853,100,800,100C746.7,100,693,100,640,100C586.7,100,533,100,480,100C426.7,100,373,100,320,100C266.7,100,213,100,160,100C106.7,100,53,100,27,100L0,100Z"/></svg>